<svg width="125" height="26" viewBox="0 0 125 26" fill="none" xmlns="http://www.w3.org/2000/svg">
<path d="M9.324 25.74C7.572 25.74 5.988 25.44 4.572 24.84C3.18 24.24 2.076 23.376 1.26 22.248C0.444 21.12 0.024 19.788 0 18.252H5.4C5.472 19.284 5.832 20.1 6.48 20.7C7.152 21.3 8.064 21.6 9.216 21.6C10.392 21.6 11.316 21.324 11.988 20.772C12.66 20.196 12.996 19.452 12.996 18.54C12.996 17.796 12.768 17.184 12.312 16.704C11.856 16.224 11.28 15.852 10.584 15.588C9.912 15.3 8.976 14.988 7.776 14.652C6.144 14.172 4.812 13.704 3.78 13.248C2.772 12.768 1.896 12.06 1.152 11.124C0.432 10.164 0.072 8.892 0.072 7.308C0.072 5.82 0.444 4.524 1.188 3.42C1.932 2.316 2.976 1.476 4.32 0.899999C5.664 0.3 7.2 0 8.928 0C11.52 0 13.62 0.636 15.228 1.908C16.86 3.156 17.76 4.908 17.928 7.164H12.384C12.336 6.3 11.964 5.592 11.268 5.04C10.596 4.464 9.696 4.176 8.568 4.176C7.584 4.176 6.792 4.428 6.192 4.932C5.616 5.436 5.328 6.168 5.328 7.128C5.328 7.8 5.544 8.364 5.976 8.82C6.432 9.252 6.984 9.612 7.632 9.9C8.304 10.164 9.24 10.476 10.44 10.836C12.072 11.316 13.404 11.796 14.436 12.276C15.468 12.756 16.356 13.476 17.1 14.436C17.844 15.396 18.216 16.656 18.216 18.216C18.216 19.56 17.868 20.808 17.172 21.96C16.476 23.112 15.456 24.036 14.112 24.732C12.768 25.404 11.172 25.74 9.324 25.74Z" fill="#332C5C"/>
<path d="M20.9295 15.444C20.9295 13.428 21.3255 11.64 22.1175 10.08C22.9335 8.52 24.0255 7.32 25.3935 6.48C26.7855 5.64 28.3335 5.22 30.0375 5.22C31.5255 5.22 32.8215 5.52 33.9255 6.12C35.0535 6.72 35.9535 7.476 36.6255 8.388V5.544H41.7015V25.488H36.6255V22.572C35.9775 23.508 35.0775 24.288 33.9255 24.912C32.7975 25.512 31.4895 25.812 30.0015 25.812C28.3215 25.812 26.7855 25.38 25.3935 24.516C24.0255 23.652 22.9335 22.44 22.1175 20.88C21.3255 19.296 20.9295 17.484 20.9295 15.444ZM36.6255 15.516C36.6255 14.292 36.3855 13.248 35.9055 12.384C35.4255 11.496 34.7775 10.824 33.9615 10.368C33.1455 9.888 32.2695 9.648 31.3335 9.648C30.3975 9.648 29.5335 9.876 28.7415 10.332C27.9495 10.788 27.3015 11.46 26.7975 12.348C26.3175 13.212 26.0775 14.244 26.0775 15.444C26.0775 16.644 26.3175 17.7 26.7975 18.612C27.3015 19.5 27.9495 20.184 28.7415 20.664C29.5575 21.144 30.4215 21.384 31.3335 21.384C32.2695 21.384 33.1455 21.156 33.9615 20.7C34.7775 20.22 35.4255 19.548 35.9055 18.684C36.3855 17.796 36.6255 16.74 36.6255 15.516Z" fill="#332C5C"/>
<path d="M44.9679 15.444C44.9679 13.428 45.3639 11.64 46.1559 10.08C46.9719 8.52 48.0639 7.32 49.4319 6.48C50.8239 5.64 52.3719 5.22 54.0759 5.22C55.5639 5.22 56.8599 5.52 57.9639 6.12C59.0919 6.72 59.9919 7.476 60.6639 8.388V5.544H65.7399V25.488H60.6639V22.572C60.0159 23.508 59.1159 24.288 57.9639 24.912C56.8359 25.512 55.5279 25.812 54.0399 25.812C52.3599 25.812 50.8239 25.38 49.4319 24.516C48.0639 23.652 46.9719 22.44 46.1559 20.88C45.3639 19.296 44.9679 17.484 44.9679 15.444ZM60.6639 15.516C60.6639 14.292 60.4239 13.248 59.9439 12.384C59.4639 11.496 58.8159 10.824 57.9999 10.368C57.1839 9.888 56.3079 9.648 55.3719 9.648C54.4359 9.648 53.5719 9.876 52.7799 10.332C51.9879 10.788 51.3399 11.46 50.8359 12.348C50.3559 13.212 50.1159 14.244 50.1159 15.444C50.1159 16.644 50.3559 17.7 50.8359 18.612C51.3399 19.5 51.9879 20.184 52.7799 20.664C53.5959 21.144 54.4599 21.384 55.3719 21.384C56.3079 21.384 57.1839 21.156 57.9999 20.7C58.8159 20.22 59.4639 19.548 59.9439 18.684C60.4239 17.796 60.6639 16.74 60.6639 15.516Z" fill="#332C5C"/>
<path d="M78.9784 25.74C77.2264 25.74 75.6424 25.44 74.2264 24.84C72.8344 24.24 71.7304 23.376 70.9144 22.248C70.0984 21.12 69.6784 19.788 69.6544 18.252H75.0544C75.1264 19.284 75.4864 20.1 76.1344 20.7C76.8064 21.3 77.7184 21.6 78.8704 21.6C80.0464 21.6 80.9704 21.324 81.6424 20.772C82.3144 20.196 82.6504 19.452 82.6504 18.54C82.6504 17.796 82.4224 17.184 81.9664 16.704C81.5104 16.224 80.9344 15.852 80.2384 15.588C79.5664 15.3 78.6304 14.988 77.4304 14.652C75.7984 14.172 74.4664 13.704 73.4344 13.248C72.4264 12.768 71.5504 12.06 70.8064 11.124C70.0864 10.164 69.7264 8.892 69.7264 7.308C69.7264 5.82 70.0984 4.524 70.8424 3.42C71.5864 2.316 72.6304 1.476 73.9744 0.899999C75.3184 0.3 76.8544 0 78.5824 0C81.1744 0 83.2744 0.636 84.8824 1.908C86.5144 3.156 87.4144 4.908 87.5824 7.164H82.0384C81.9904 6.3 81.6184 5.592 80.9224 5.04C80.2504 4.464 79.3504 4.176 78.2224 4.176C77.2384 4.176 76.4464 4.428 75.8464 4.932C75.2704 5.436 74.9824 6.168 74.9824 7.128C74.9824 7.8 75.1984 8.364 75.6304 8.82C76.0864 9.252 76.6384 9.612 77.2864 9.9C77.9584 10.164 78.8944 10.476 80.0944 10.836C81.7264 11.316 83.0584 11.796 84.0904 12.276C85.1224 12.756 86.0104 13.476 86.7544 14.436C87.4984 15.396 87.8704 16.656 87.8704 18.216C87.8704 19.56 87.5224 20.808 86.8264 21.96C86.1304 23.112 85.1104 24.036 83.7664 24.732C82.4224 25.404 80.8264 25.74 78.9784 25.74Z" fill="#332C5C"/>
<path d="M97.7479 9.684V19.332C97.7479 20.004 97.9039 20.496 98.2159 20.808C98.5519 21.096 99.1039 21.24 99.8719 21.24H102.212V25.488H99.0439C94.7959 25.488 92.6719 23.424 92.6719 19.296V9.684H90.2959V5.544H92.6719V0.611999H97.7479V5.544H102.212V9.684H97.7479Z" fill="#332C5C"/>
<path d="M114.333 25.812C112.413 25.812 110.685 25.392 109.149 24.552C107.613 23.688 106.401 22.476 105.513 20.916C104.649 19.356 104.217 17.556 104.217 15.516C104.217 13.476 104.661 11.676 105.549 10.116C106.461 8.556 107.697 7.356 109.257 6.516C110.817 5.652 112.557 5.22 114.477 5.22C116.397 5.22 118.137 5.652 119.697 6.516C121.257 7.356 122.481 8.556 123.369 10.116C124.281 11.676 124.737 13.476 124.737 15.516C124.737 17.556 124.269 19.356 123.333 20.916C122.421 22.476 121.173 23.688 119.589 24.552C118.029 25.392 116.277 25.812 114.333 25.812ZM114.333 21.42C115.245 21.42 116.097 21.204 116.889 20.772C117.705 20.316 118.353 19.644 118.833 18.756C119.313 17.868 119.553 16.788 119.553 15.516C119.553 13.62 119.049 12.168 118.041 11.16C117.057 10.128 115.845 9.612 114.405 9.612C112.965 9.612 111.753 10.128 110.769 11.16C109.809 12.168 109.329 13.62 109.329 15.516C109.329 17.412 109.797 18.876 110.733 19.908C111.693 20.916 112.893 21.42 114.333 21.42Z" fill="#332C5C"/>
</svg>
